<?xml version="1.0" encoding="UTF-8"?>
<svg version="1.1" xmlns="http://www.w3.org/2000/svg" width="256" height="256">
<path d="M0 0 C16.12933138 14.52852556 25.58157342 34.51220867 26.8125 56.109375 C27.59329212 79.72041342 19.12492725 100.6026286 3.13476562 117.78222656 C-11.34520856 132.45538973 -31.73273337 141.29257774 -52.34700012 141.50869751 C-53.06981674 141.51138641 -53.79263336 141.51407532 -54.53735352 141.5168457 C-55.31877716 141.5234169 -56.10020081 141.5299881 -56.90530396 141.53675842 C-59.46812051 141.55632731 -62.03087918 141.56811204 -64.59375 141.578125 C-65.47347914 141.58220053 -66.35320827 141.58627605 -67.25959587 141.59047508 C-71.90898269 141.61125768 -76.5583406 141.62559749 -81.20776367 141.63500977 C-86.00170846 141.64610686 -90.7951933 141.68056676 -95.58897495 141.72018147 C-99.28562782 141.74633049 -102.98217017 141.75469966 -106.67890739 141.75829124 C-108.44632032 141.76315524 -110.21372838 141.77476392 -111.98105049 141.79332924 C-114.45331675 141.81770312 -116.92437865 141.81676024 -119.39672852 141.80981445 C-120.48398979 141.82902954 -120.48398979 141.82902954 -121.59321594 141.84863281 C-126.64260623 141.79704658 -129.51607487 140.51849151 -133.40234375 137.33984375 C-135.35084626 133.44283874 -135.30414656 129.55017154 -134.40234375 125.33984375 C-131.82320746 121.2649184 -128.6793667 117.86173169 -125.40234375 114.33984375 C-123.71301624 112.3576063 -122.05758991 110.35083553 -120.40234375 108.33984375 C-121.18158203 107.06753906 -121.18158203 107.06753906 -121.9765625 105.76953125 C-134.10771639 85.52765149 -138.80895028 61.18001823 -133.01904297 37.87060547 C-126.59145219 16.7048493 -111.56740884 -1.18340268 -92.23828125 -11.72851562 C-61.38628947 -27.38426039 -26.23669546 -22.17757239 0 0 Z M-100.40234375 22.33984375 C-111.1284058 35.94459157 -114.49544663 51.35277364 -113.40234375 68.33984375 C-111.87067279 79.91871416 -106.56942896 90.92372751 -98.96484375 99.71484375 C-96.50360861 102.64055323 -94.84184761 104.65093138 -94.58984375 108.52734375 C-95.34598605 112.07539607 -95.87879293 113.31565725 -97.953125 116.078125 C-98.40985596 116.69341064 -98.86658691 117.30869629 -99.3371582 117.94262695 C-99.68866943 118.4037085 -100.04018066 118.86479004 -100.40234375 119.33984375 C-92.93170805 119.41642558 -85.46117504 119.46866534 -77.99023438 119.50463867 C-75.45308652 119.51964852 -72.91596427 119.54006272 -70.37890625 119.56616211 C-66.71477913 119.6028898 -63.05099752 119.61964883 -59.38671875 119.6328125 C-57.70784576 119.65603828 -57.70784576 119.65603828 -55.99505615 119.67973328 C-39.43154642 119.68320775 -24.50223571 114.09393565 -12.46459961 102.66552734 C-1.17249388 91.32930434 4.65967987 76.59884814 4.84765625 60.71484375 C4.80324088 43.84859084 -1.58178337 28.85613339 -13.51953125 16.96484375 C-26.88164555 4.79771528 -42.69397614 0.54473887 -60.421875 1.21240234 C-76.26073155 2.2316187 -89.97830376 10.89201412 -100.40234375 22.33984375 Z " fill='#e9b50b' transform="translate(134.40234375,107.66015625)"/>
<path d="M0 0 C13.28188347 11.9636815 24.63353882 30.08482111 25.79052734 48.39160156 C26.28149114 69.11920048 25.41134325 85.67367334 14.171875 103.58203125 C12.34978552 106.2448316 12.34978552 106.2448316 12.59765625 109.33984375 C14.45540624 111.97239511 14.45540624 111.97239511 16.84765625 114.71484375 C18.03101563 116.11863281 18.03101563 116.11863281 19.23828125 117.55078125 C20.75664492 119.3456681 22.29563426 121.12341146 23.859375 122.87890625 C26.31476549 126.35507706 26.21670746 128.82200932 26.0625 132.9609375 C25.35320643 136.59085168 23.50253171 138.19576901 20.59765625 140.33984375 C17.89866876 141.68933749 15.78048209 141.48190477 12.75854492 141.50097656 C11.53354782 141.51058411 10.30855072 141.52019165 9.0464325 141.53009033 C7.70283189 141.53493868 6.35922912 141.53921742 5.015625 141.54296875 C3.64040627 141.54872109 2.26518756 141.55447882 0.88996887 141.5602417 C-1.99596531 141.57075252 -4.88187163 141.57659433 -7.76782227 141.58007812 C-11.46001765 141.58555661 -15.15184309 141.60956998 -18.84392262 141.63805008 C-21.6861426 141.65670661 -24.52827412 141.6618837 -27.37055016 141.663414 C-28.73127956 141.66643536 -30.09200759 141.67444648 -31.45267677 141.68759918 C-33.36005951 141.7047172 -35.26759491 141.7009263 -37.17504883 141.69628906 C-38.2593367 141.69993469 -39.34362457 141.70358032 -40.46076965 141.70733643 C-44.60711008 141.18933155 -47.19743787 139.46165267 -50.21484375 136.65234375 C-51.97301057 133.22854521 -52.17800181 130.04734697 -51.40234375 126.33984375 C-49.42556199 122.81799119 -47.30362885 120.64027212 -43.40234375 119.33984375 C-40.81904146 119.18662016 -38.25742136 119.08277486 -35.671875 119.0234375 C-34.92145432 119.0026564 -34.17103363 118.98187531 -33.39787292 118.96046448 C-31.00362191 118.89514449 -28.60926236 118.83616583 -26.21484375 118.77734375 C-24.59048362 118.73414182 -22.96613442 118.69052699 -21.34179688 118.64648438 C-17.36209004 118.53948112 -13.38227417 118.43816438 -9.40234375 118.33984375 C-10.62111206 116.9779895 -10.62111206 116.9779895 -11.86450195 115.58862305 C-14.53498581 112.37277904 -15.14996498 110.45974021 -14.86865234 106.30322266 C-14.06214409 102.90744287 -11.98178631 100.55882288 -9.71484375 98.02734375 C1.33256238 84.6723348 4.81880371 69.43590826 3.59765625 52.33984375 C1.49224645 36.82430124 -6.75387669 22.89518125 -19.03125 13.28125 C-33.20010597 3.69097631 -48.78530113 0.5385602 -65.62109375 2.765625 C-81.05571966 6.14713578 -94.621614 14.59299586 -103.27734375 27.90234375 C-105.71850325 32.00978395 -108.00836547 36.20048308 -110.1640625 40.46484375 C-111.65445974 42.72159667 -113.09765997 43.93214118 -115.40234375 45.33984375 C-121.9477983 46.18441853 -121.9477983 46.18441853 -125.21875 44.28515625 C-127.39423586 42.51331475 -129.13937929 40.86577266 -130.40234375 38.33984375 C-131.28176356 26.68043915 -123.13105415 15.98725886 -115.99609375 7.30859375 C-85.60325779 -27.47838717 -34.79054054 -29.40803778 0 0 Z " fill='#e9b50b' transform="translate(230.40234375,27.66015625)"/>
<path d="M0 0 C4.90938861 3.59671786 9.03650795 8.26162088 13.25 12.625 C17.09411747 11.05887807 19.40950209 8.60405879 22.25 5.625 C26.02473539 1.66613118 28.616516 -1.03150209 34.125 -1.75 C38.12153796 -1.27041545 40.15459308 0.09239433 43.25 2.625 C45.60242347 5.83285018 45.7184209 8.72149252 45.25 12.625 C42.0498744 19.0252512 36.33946625 23.71036274 31.25 28.625 C32.81612193 32.46911747 35.27094121 34.78450209 38.25 37.625 C42.20886882 41.39973539 44.90650209 43.991516 45.625 49.5 C45.14541545 53.49653796 43.78260567 55.52959308 41.25 58.625 C38.04214982 60.97742347 35.15350748 61.0934209 31.25 60.625 C24.8497488 57.4248744 20.16463726 51.71446625 15.25 46.625 C11.40588253 48.19112193 9.09049791 50.64594121 6.25 53.625 C2.47526461 57.58386882 -0.116516 60.28150209 -5.625 61 C-9.62153796 60.52041545 -11.65459308 59.15760567 -14.75 56.625 C-17.10242347 53.41714982 -17.2184209 50.52850748 -16.75 46.625 C-13.5498744 40.2247488 -7.83946625 35.53963726 -2.75 30.625 C-4.31612193 26.78088253 -6.77094121 24.46549791 -9.75 21.625 C-13.70886882 17.85026461 -16.40650209 15.258484 -17.125 9.75 C-16.64541545 5.75346204 -15.28260567 3.72040692 -12.75 0.625 C-8.67756456 -2.36145265 -4.43026924 -2.21513462 0 0 Z " fill='#e9b50b' transform="translate(65.75,138.375)"/>
<path d="M0 0 C3.06471302 1.65023009 5.30778907 3.056076 7.375 5.875 C8.23855538 8.81108828 8.36658209 10.94514926 8 14 C5.06488115 19.05751837 1.31879154 22.97367911 -2.8125 27.078125 C-3.78860229 28.05709747 -3.78860229 28.05709747 -4.78442383 29.05584717 C-6.15363074 30.42640867 -7.52534096 31.79447345 -8.89941406 33.16015625 C-11.00039956 35.25039752 -13.09045914 37.35113949 -15.1796875 39.453125 C-16.51498391 40.78710037 -17.85090029 42.1204555 -19.1875 43.453125 C-19.81052002 44.08019348 -20.43354004 44.70726196 -21.07543945 45.35333252 C-21.66284912 45.93443787 -22.25025879 46.51554321 -22.85546875 47.11425781 C-23.36746826 47.62466614 -23.87946777 48.13507446 -24.40698242 48.66094971 C-27.10356552 50.92762927 -29.38492146 51.91977236 -32.875 52.375 C-40.99338903 51.40079332 -46.80776033 43.48929073 -52.25 38 C-53.16007813 37.09765625 -54.07015625 36.1953125 -55.0078125 35.265625 C-55.87664062 34.39421875 -56.74546875 33.5228125 -57.640625 32.625 C-58.42985352 31.83351563 -59.21908203 31.04203125 -60.03222656 30.2265625 C-62.67819536 27.2326127 -63.8588939 25.08181344 -64.375 21.125 C-63.89541545 17.12846204 -62.53260567 15.09540692 -60 12 C-56.79214982 9.64757653 -53.90350748 9.5315791 -50 10 C-43.5997488 13.2001256 -38.91463726 18.91053375 -34 24 C-30.36676822 22.47371085 -28.10687344 20.31196093 -25.375 17.5 C-24.50359375 16.613125 -23.6321875 15.72625 -22.734375 14.8125 C-21.83203125 13.884375 -20.9296875 12.95625 -20 12 C-18.21308736 10.16203271 -16.4216034 8.32849577 -14.625 6.5 C-13.83351562 5.6853125 -13.04203125 4.870625 -12.2265625 4.03125 C-8.30987069 0.45812765 -5.32041036 -0.63844924 0 0 Z " fill='#e9b50b' transform="translate(203,67)"/>
</svg>